<svg xmlns="http://www.w3.org/2000/svg" xmlns:xlink="http://www.w3.org/1999/xlink" contentStyleType="text/css" data-diagram-type="ACTIVITY" height="1246px" preserveAspectRatio="none" style="width:676px;height:1246px;background:#FFFFFF;" version="1.1" viewBox="0 0 676 1246" width="676px" zoomAndPan="magnify"><title>ConcurQueue.ConcurQueue
    ConcurQueue.entity.Task Dispatch System Activity Diagram</title><defs/><g><g class="title" data-source-line="1"><text fill="#000000" font-family="sans-serif" font-size="14" font-weight="bold" lengthAdjust="spacing" textLength="421.5586" x="126.1133" y="32.9951">ConcurQueue.ConcurQueue
    ConcurQueue.entity.Task Dispatch System Activity Diagram</text></g><ellipse cx="334.4902" cy="57.2969" fill="#222222" rx="10" ry="10" style="stroke:#222222;stroke-width:1;"/><path d="M413.8818,77.2969 L413.8818,108.5625 L393.8818,112.5625 L413.8818,116.5625 L413.8818,147.8281 A0,0 0 0 0 413.8818,147.8281 L635.7852,147.8281 A0,0 0 0 0 635.7852,147.8281 L635.7852,87.2969 L625.7852,77.2969 L413.8818,77.2969 A0,0 0 0 0 413.8818,77.2969" fill="#FEFFDD" style="stroke:#181818;stroke-width:0.5;"/><path d="M625.7852,77.2969 L625.7852,87.2969 L635.7852,87.2969 L625.7852,77.2969" fill="#FEFFDD" style="stroke:#181818;stroke-width:0.5;"/><text fill="#000000" font-family="sans-serif" font-size="13" lengthAdjust="spacing" textLength="200.9033" x="419.8818" y="94.3638">- Create PriorityBlockingQueue</text><text fill="#000000" font-family="sans-serif" font-size="13" lengthAdjust="spacing" textLength="159.4785" x="419.8818" y="109.4966">-
    Start ConcurQueue.producer.Producer Threads</text><text fill="#000000" font-family="sans-serif" font-size="13" lengthAdjust="spacing" textLength="173.1006" x="419.8818" y="124.6294">-
    Start ConcurQueue.consumer.Worker Thread Pool</text><text fill="#000000" font-family="sans-serif" font-size="13" lengthAdjust="spacing" textLength="159.3198" x="419.8818" y="139.7622">-
    Launch ConcurQueue.monitor.Monitor Thread</text><rect fill="#F1F1F1" height="33.9688" rx="12.5" ry="12.5" style="stroke:#181818;stroke-width:0.5;" width="118.7832" x="275.0986" y="95.5781"/><text fill="#000000" font-family="sans-serif" font-size="12" lengthAdjust="spacing" textLength="98.7832" x="285.0986" y="116.7168">Initialize System</text><rect fill="#555555" height="6" rx="2.5" ry="2.5" style="stroke:#555555;stroke-width:1;" width="654.7852" x="11" y="167.8281"/><rect fill="#F1F1F1" height="33.9688" rx="12.5" ry="12.5" style="stroke:#181818;stroke-width:0.5;" width="186.9512" x="23" y="388.2148"/><text fill="#000000" font-family="sans-serif" font-size="12" lengthAdjust="spacing" textLength="166.9512" x="33" y="409.3535">ConcurQueue.producer.Producer
    1: Generate Tasks</text><rect fill="#F1F1F1" height="33.9688" rx="12.5" ry="12.5" style="stroke:#181818;stroke-width:0.5;" width="186.9512" x="23" y="457.1836"/><text fill="#000000" font-family="sans-serif" font-size="12" lengthAdjust="spacing" textLength="166.9512" x="33" y="478.3223">ConcurQueue.producer.Producer
    2: Generate Tasks</text><rect fill="#F1F1F1" height="33.9688" rx="12.5" ry="12.5" style="stroke:#181818;stroke-width:0.5;" width="186.9512" x="23" y="512.7344"/><text fill="#000000" font-family="sans-serif" font-size="12" lengthAdjust="spacing" textLength="166.9512" x="33" y="533.873">ConcurQueue.producer.Producer
    3: Generate Tasks</text><rect fill="#F1F1F1" height="33.9688" rx="12.5" ry="12.5" style="stroke:#181818;stroke-width:0.5;" width="200.457" x="300.7349" y="237.8281"/><text fill="#000000" font-family="sans-serif" font-size="12" lengthAdjust="spacing" textLength="180.457" x="310.7349" y="258.9668">ConcurQueue.consumer.Worker
    picks task from queue</text><polygon fill="#F1F1F1" points="363.8438,291.7969,438.083,291.7969,450.083,303.7969,438.083,315.7969,363.8438,315.7969,351.8438,303.7969,363.8438,291.7969" style="stroke:#181818;stroke-width:0.5;"/><text fill="#000000" font-family="sans-serif" font-size="11" lengthAdjust="spacing" textLength="74.2393" x="363.8438" y="307.605">ConcurQueue.entity.Task
    Priority?</text><text fill="#000000" font-family="sans-serif" font-size="11" lengthAdjust="spacing" textLength="25.2817" x="326.562" y="301.2026">High</text><text fill="#000000" font-family="sans-serif" font-size="11" lengthAdjust="spacing" textLength="21.855" x="450.083" y="301.2026">Low</text><rect fill="#F1F1F1" height="33.9688" rx="12.5" ry="12.5" style="stroke:#181818;stroke-width:0.5;" width="112.3496" x="276.0752" y="325.7969"/><text fill="#000000" font-family="sans-serif" font-size="12" lengthAdjust="spacing" textLength="92.3496" x="286.0752" y="346.9355">Process quickly</text><rect fill="#F1F1F1" height="33.9688" rx="12.5" ry="12.5" style="stroke:#181818;stroke-width:0.5;" width="122.5039" x="408.4248" y="325.7969"/><text fill="#000000" font-family="sans-serif" font-size="12" lengthAdjust="spacing" textLength="102.5039" x="418.4248" y="346.9355">Process normally</text><polygon fill="#F1F1F1" points="400.9634,365.7656,412.9634,377.7656,400.9634,389.7656,388.9634,377.7656,400.9634,365.7656" style="stroke:#181818;stroke-width:0.5;"/><polygon fill="#F1F1F1" points="349.6909,424.7656,452.2358,424.7656,464.2358,436.7656,452.2358,448.7656,349.6909,448.7656,337.6909,436.7656,349.6909,424.7656" style="stroke:#181818;stroke-width:0.5;"/><text fill="#000000" font-family="sans-serif" font-size="11" lengthAdjust="spacing" textLength="102.5449" x="349.6909" y="440.5737">Process succeeds?</text><text fill="#000000" font-family="sans-serif" font-size="11" lengthAdjust="spacing" textLength="19.2178" x="318.4731" y="434.1714">Yes</text><text fill="#000000" font-family="sans-serif" font-size="11" lengthAdjust="spacing" textLength="14.9585" x="464.2358" y="434.1714">No</text><rect fill="#F1F1F1" height="33.9688" rx="12.5" ry="12.5" style="stroke:#181818;stroke-width:0.5;" width="144.6582" x="219.9512" y="458.7656"/><text fill="#000000" font-family="sans-serif" font-size="12" lengthAdjust="spacing" textLength="124.6582" x="229.9512" y="479.9043">Mark as COMPLETED</text><rect fill="#F1F1F1" height="33.9688" rx="12.5" ry="12.5" style="stroke:#181818;stroke-width:0.5;" width="151.9824" x="433.6553" y="458.7656"/><text fill="#000000" font-family="sans-serif" font-size="12" lengthAdjust="spacing" textLength="131.9824" x="443.6553" y="479.9043">Increment retry count</text><polygon fill="#F1F1F1" points="475.7227,514.3164,543.5703,514.3164,555.5703,526.3164,543.5703,538.3164,475.7227,538.3164,463.7227,526.3164,475.7227,514.3164" style="stroke:#181818;stroke-width:0.5;"/><text fill="#000000" font-family="sans-serif" font-size="11" lengthAdjust="spacing" textLength="67.8477" x="475.7227" y="530.1245">Retries &lt; 3?</text><text fill="#000000" font-family="sans-serif" font-size="11" lengthAdjust="spacing" textLength="19.2178" x="444.5049" y="523.7222">Yes</text><text fill="#000000" font-family="sans-serif" font-size="11" lengthAdjust="spacing" textLength="14.9585" x="555.5703" y="523.7222">No</text><rect fill="#F1F1F1" height="33.9688" rx="12.5" ry="12.5" style="stroke:#181818;stroke-width:0.5;" width="102.3887" x="394.6094" y="548.3164"/><text fill="#000000" font-family="sans-serif" font-size="12" lengthAdjust="spacing" textLength="82.3887" x="404.6094" y="569.4551">Requeue task</text><rect fill="#F1F1F1" height="33.9688" rx="12.5" ry="12.5" style="stroke:#181818;stroke-width:0.5;" width="112.9824" x="516.998" y="548.3164"/><text fill="#000000" font-family="sans-serif" font-size="12" lengthAdjust="spacing" textLength="92.9824" x="526.998" y="569.4551">Mark as FAILED</text><polygon fill="#F1F1F1" points="509.6465,588.2852,521.6465,600.2852,509.6465,612.2852,497.6465,600.2852,509.6465,588.2852" style="stroke:#181818;stroke-width:0.5;"/><polygon fill="#F1F1F1" points="400.9634,618.2852,412.9634,630.2852,400.9634,642.2852,388.9634,630.2852,400.9634,618.2852" style="stroke:#181818;stroke-width:0.5;"/><polygon fill="#F1F1F1" points="400.9634,193.8281,412.9634,205.8281,400.9634,217.8281,388.9634,205.8281,400.9634,193.8281" style="stroke:#181818;stroke-width:0.5;"/><polygon fill="#F1F1F1" points="354.5625,662.2852,447.3643,662.2852,459.3643,674.2852,447.3643,686.2852,354.5625,686.2852,342.5625,674.2852,354.5625,662.2852" style="stroke:#181818;stroke-width:0.5;"/><text fill="#000000" font-family="sans-serif" font-size="11" lengthAdjust="spacing" textLength="92.8018" x="354.5625" y="678.0933">System running?</text><text fill="#000000" font-family="sans-serif" font-size="11" lengthAdjust="spacing" textLength="19.2178" x="459.3643" y="671.6909">Yes</text><ellipse cx="400.9634" cy="738.6841" fill="none" rx="11" ry="11" style="stroke:#222222;stroke-width:1;"/><ellipse cx="400.9634" cy="738.6841" fill="#222222" rx="6" ry="6" style="stroke:#222222;stroke-width:1;"/><rect fill="#555555" height="6" rx="2.5" ry="2.5" style="stroke:#555555;stroke-width:1;" width="654.7852" x="11" y="769.6841"/><rect fill="#F1F1F1" height="33.9688" rx="12.5" ry="12.5" style="stroke:#181818;stroke-width:0.5;" width="111.6523" x="278.6641" y="795.6841"/><text fill="#000000" font-family="sans-serif" font-size="12" lengthAdjust="spacing" textLength="91.6523" x="288.6641" y="816.8228">ConcurQueue.monitor.Monitor
    Thread</text><rect fill="#F1F1F1" height="33.9688" rx="12.5" ry="12.5" style="stroke:#181818;stroke-width:0.5;" width="129.5293" x="269.7256" y="893.6528"/><text fill="#000000" font-family="sans-serif" font-size="12" lengthAdjust="spacing" textLength="109.5293" x="279.7256" y="914.7915">Log system status</text><rect fill="#F1F1F1" height="33.9688" rx="12.5" ry="12.5" style="stroke:#181818;stroke-width:0.5;" width="156.3477" x="256.3164" y="947.6216"/><text fill="#000000" font-family="sans-serif" font-size="12" lengthAdjust="spacing" textLength="136.3477" x="266.3164" y="968.7603">Check for stalled tasks</text><rect fill="#F1F1F1" height="33.9688" rx="12.5" ry="12.5" style="stroke:#181818;stroke-width:0.5;" width="108.5352" x="280.2227" y="1049.9927"/><text fill="#000000" font-family="sans-serif" font-size="12" lengthAdjust="spacing" textLength="88.5352" x="290.2227" y="1071.1313">Export to JSON</text><polygon fill="#F1F1F1" points="266.7017,1001.5903,402.2788,1001.5903,414.2788,1013.5903,402.2788,1025.5903,266.7017,1025.5903,254.7017,1013.5903,266.7017,1001.5903" style="stroke:#181818;stroke-width:0.5;"/><text fill="#000000" font-family="sans-serif" font-size="11" lengthAdjust="spacing" textLength="19.2178" x="338.4902" y="1035.8008">Yes</text><text fill="#000000" font-family="sans-serif" font-size="11" lengthAdjust="spacing" textLength="135.5771" x="266.7017" y="1017.3984">Export interval reached?</text><polygon fill="#F1F1F1" points="334.4902,1103.9614,346.4902,1115.9614,334.4902,1127.9614,322.4902,1115.9614,334.4902,1103.9614" style="stroke:#181818;stroke-width:0.5;"/><polygon fill="#F1F1F1" points="334.4902,849.6528,346.4902,861.6528,334.4902,873.6528,322.4902,861.6528,334.4902,849.6528" style="stroke:#181818;stroke-width:0.5;"/><polygon fill="#F1F1F1" points="288.0894,1147.9614,380.8911,1147.9614,392.8911,1159.9614,380.8911,1171.9614,288.0894,1171.9614,276.0894,1159.9614,288.0894,1147.9614" style="stroke:#181818;stroke-width:0.5;"/><text fill="#000000" font-family="sans-serif" font-size="11" lengthAdjust="spacing" textLength="92.8018" x="288.0894" y="1163.7695">System running?</text><text fill="#000000" font-family="sans-serif" font-size="11" lengthAdjust="spacing" textLength="19.2178" x="392.8911" y="1157.3672">Yes</text><ellipse cx="334.4902" cy="1224.3604" fill="none" rx="11" ry="11" style="stroke:#222222;stroke-width:1;"/><ellipse cx="334.4902" cy="1224.3604" fill="#222222" rx="6" ry="6" style="stroke:#222222;stroke-width:1;"/><line style="stroke:#181818;stroke-width:1;" x1="334.4902" x2="334.4902" y1="67.2969" y2="95.5781"/><polygon fill="#181818" points="330.4902,85.5781,334.4902,95.5781,338.4902,85.5781,334.4902,89.5781" style="stroke:#181818;stroke-width:1;"/><line style="stroke:#181818;stroke-width:1;" x1="116.4756" x2="116.4756" y1="422.1836" y2="457.1836"/><polygon fill="#181818" points="112.4756,447.1836,116.4756,457.1836,120.4756,447.1836,116.4756,451.1836" style="stroke:#181818;stroke-width:1;"/><line style="stroke:#181818;stroke-width:1;" x1="116.4756" x2="116.4756" y1="491.1523" y2="512.7344"/><polygon fill="#181818" points="112.4756,502.7344,116.4756,512.7344,120.4756,502.7344,116.4756,506.7344" style="stroke:#181818;stroke-width:1;"/><line style="stroke:#181818;stroke-width:1;" x1="351.8438" x2="332.25" y1="303.7969" y2="303.7969"/><line style="stroke:#181818;stroke-width:1;" x1="332.25" x2="332.25" y1="303.7969" y2="325.7969"/><polygon fill="#181818" points="328.25,315.7969,332.25,325.7969,336.25,315.7969,332.25,319.7969" style="stroke:#181818;stroke-width:1;"/><line style="stroke:#181818;stroke-width:1;" x1="450.083" x2="469.6768" y1="303.7969" y2="303.7969"/><line style="stroke:#181818;stroke-width:1;" x1="469.6768" x2="469.6768" y1="303.7969" y2="325.7969"/><polygon fill="#181818" points="465.6768,315.7969,469.6768,325.7969,473.6768,315.7969,469.6768,319.7969" style="stroke:#181818;stroke-width:1;"/><line style="stroke:#181818;stroke-width:1;" x1="332.25" x2="332.25" y1="359.7656" y2="377.7656"/><line style="stroke:#181818;stroke-width:1;" x1="332.25" x2="388.9634" y1="377.7656" y2="377.7656"/><polygon fill="#181818" points="378.9634,373.7656,388.9634,377.7656,378.9634,381.7656,382.9634,377.7656" style="stroke:#181818;stroke-width:1;"/><line style="stroke:#181818;stroke-width:1;" x1="469.6768" x2="469.6768" y1="359.7656" y2="377.7656"/><line style="stroke:#181818;stroke-width:1;" x1="469.6768" x2="412.9634" y1="377.7656" y2="377.7656"/><polygon fill="#181818" points="422.9634,373.7656,412.9634,377.7656,422.9634,381.7656,418.9634,377.7656" style="stroke:#181818;stroke-width:1;"/><line style="stroke:#181818;stroke-width:1;" x1="400.9634" x2="400.9634" y1="271.7969" y2="291.7969"/><polygon fill="#181818" points="396.9634,281.7969,400.9634,291.7969,404.9634,281.7969,400.9634,285.7969" style="stroke:#181818;stroke-width:1;"/><line style="stroke:#181818;stroke-width:1;" x1="463.7227" x2="445.8037" y1="526.3164" y2="526.3164"/><line style="stroke:#181818;stroke-width:1;" x1="445.8037" x2="445.8037" y1="526.3164" y2="548.3164"/><polygon fill="#181818" points="441.8037,538.3164,445.8037,548.3164,449.8037,538.3164,445.8037,542.3164" style="stroke:#181818;stroke-width:1;"/><line style="stroke:#181818;stroke-width:1;" x1="555.5703" x2="573.4893" y1="526.3164" y2="526.3164"/><line style="stroke:#181818;stroke-width:1;" x1="573.4893" x2="573.4893" y1="526.3164" y2="548.3164"/><polygon fill="#181818" points="569.4893,538.3164,573.4893,548.3164,577.4893,538.3164,573.4893,542.3164" style="stroke:#181818;stroke-width:1;"/><line style="stroke:#181818;stroke-width:1;" x1="445.8037" x2="445.8037" y1="582.2852" y2="600.2852"/><line style="stroke:#181818;stroke-width:1;" x1="445.8037" x2="497.6465" y1="600.2852" y2="600.2852"/><polygon fill="#181818" points="487.6465,596.2852,497.6465,600.2852,487.6465,604.2852,491.6465,600.2852" style="stroke:#181818;stroke-width:1;"/><line style="stroke:#181818;stroke-width:1;" x1="573.4893" x2="573.4893" y1="582.2852" y2="600.2852"/><line style="stroke:#181818;stroke-width:1;" x1="573.4893" x2="521.6465" y1="600.2852" y2="600.2852"/><polygon fill="#181818" points="531.6465,596.2852,521.6465,600.2852,531.6465,604.2852,527.6465,600.2852" style="stroke:#181818;stroke-width:1;"/><line style="stroke:#181818;stroke-width:1;" x1="509.6465" x2="509.6465" y1="492.7344" y2="514.3164"/><polygon fill="#181818" points="505.6465,504.3164,509.6465,514.3164,513.6465,504.3164,509.6465,508.3164" style="stroke:#181818;stroke-width:1;"/><line style="stroke:#181818;stroke-width:1;" x1="337.6909" x2="292.2803" y1="436.7656" y2="436.7656"/><line style="stroke:#181818;stroke-width:1;" x1="292.2803" x2="292.2803" y1="436.7656" y2="458.7656"/><polygon fill="#181818" points="288.2803,448.7656,292.2803,458.7656,296.2803,448.7656,292.2803,452.7656" style="stroke:#181818;stroke-width:1;"/><line style="stroke:#181818;stroke-width:1;" x1="464.2358" x2="509.6465" y1="436.7656" y2="436.7656"/><line style="stroke:#181818;stroke-width:1;" x1="509.6465" x2="509.6465" y1="436.7656" y2="458.7656"/><polygon fill="#181818" points="505.6465,448.7656,509.6465,458.7656,513.6465,448.7656,509.6465,452.7656" style="stroke:#181818;stroke-width:1;"/><line style="stroke:#181818;stroke-width:1;" x1="292.2803" x2="292.2803" y1="492.7344" y2="630.2852"/><line style="stroke:#181818;stroke-width:1;" x1="292.2803" x2="388.9634" y1="630.2852" y2="630.2852"/><polygon fill="#181818" points="378.9634,626.2852,388.9634,630.2852,378.9634,634.2852,382.9634,630.2852" style="stroke:#181818;stroke-width:1;"/><line style="stroke:#181818;stroke-width:1;" x1="509.6465" x2="509.6465" y1="612.2852" y2="630.2852"/><line style="stroke:#181818;stroke-width:1;" x1="509.6465" x2="412.9634" y1="630.2852" y2="630.2852"/><polygon fill="#181818" points="422.9634,626.2852,412.9634,630.2852,422.9634,634.2852,418.9634,630.2852" style="stroke:#181818;stroke-width:1;"/><line style="stroke:#181818;stroke-width:1;" x1="400.9634" x2="400.9634" y1="389.7656" y2="424.7656"/><polygon fill="#181818" points="396.9634,414.7656,400.9634,424.7656,404.9634,414.7656,400.9634,418.7656" style="stroke:#181818;stroke-width:1;"/><line style="stroke:#181818;stroke-width:1;" x1="400.9634" x2="400.9634" y1="217.8281" y2="237.8281"/><polygon fill="#181818" points="396.9634,227.8281,400.9634,237.8281,404.9634,227.8281,400.9634,231.8281" style="stroke:#181818;stroke-width:1;"/><line style="stroke:#181818;stroke-width:1;" x1="459.3643" x2="649.7852" y1="674.2852" y2="674.2852"/><polygon fill="#181818" points="645.7852,449.2656,649.7852,439.2656,653.7852,449.2656,649.7852,445.2656" style="stroke:#181818;stroke-width:1;"/><line style="stroke:#181818;stroke-width:1;" x1="649.7852" x2="649.7852" y1="205.8281" y2="674.2852"/><line style="stroke:#181818;stroke-width:1;" x1="649.7852" x2="412.9634" y1="205.8281" y2="205.8281"/><polygon fill="#181818" points="422.9634,201.8281,412.9634,205.8281,422.9634,209.8281,418.9634,205.8281" style="stroke:#181818;stroke-width:1;"/><line style="stroke:#181818;stroke-width:1;" x1="400.9634" x2="400.9634" y1="642.2852" y2="662.2852"/><polygon fill="#181818" points="396.9634,652.2852,400.9634,662.2852,404.9634,652.2852,400.9634,656.2852" style="stroke:#181818;stroke-width:1;"/><line style="stroke:#181818;stroke-width:1;" x1="400.9634" x2="400.9634" y1="686.2852" y2="727.6841"/><polygon fill="#181818" points="396.9634,717.6841,400.9634,727.6841,404.9634,717.6841,400.9634,721.6841" style="stroke:#181818;stroke-width:1;"/><text fill="#000000" font-family="sans-serif" font-size="11" lengthAdjust="spacing" textLength="14.9585" x="404.9634" y="707.5898">No</text><line style="stroke:#181818;stroke-width:1;" x1="116.4756" x2="116.4756" y1="173.8281" y2="388.2148"/><polygon fill="#181818" points="112.4756,378.2148,116.4756,388.2148,120.4756,378.2148,116.4756,382.2148" style="stroke:#181818;stroke-width:1;"/><line style="stroke:#181818;stroke-width:1;" x1="400.9634" x2="400.9634" y1="173.8281" y2="193.8281"/><polygon fill="#181818" points="396.9634,183.8281,400.9634,193.8281,404.9634,183.8281,400.9634,187.8281" style="stroke:#181818;stroke-width:1;"/><line style="stroke:#181818;stroke-width:1;" x1="116.4756" x2="116.4756" y1="546.7031" y2="769.6841"/><polygon fill="#181818" points="112.4756,759.6841,116.4756,769.6841,120.4756,759.6841,116.4756,763.6841" style="stroke:#181818;stroke-width:1;"/><line style="stroke:#181818;stroke-width:1;" x1="334.4902" x2="334.4902" y1="129.5469" y2="167.8281"/><polygon fill="#181818" points="330.4902,157.8281,334.4902,167.8281,338.4902,157.8281,334.4902,161.8281" style="stroke:#181818;stroke-width:1;"/><line style="stroke:#181818;stroke-width:1;" x1="334.4902" x2="334.4902" y1="775.6841" y2="795.6841"/><polygon fill="#181818" points="330.4902,785.6841,334.4902,795.6841,338.4902,785.6841,334.4902,789.6841" style="stroke:#181818;stroke-width:1;"/><line style="stroke:#181818;stroke-width:1;" x1="334.4902" x2="334.4902" y1="927.6216" y2="947.6216"/><polygon fill="#181818" points="330.4902,937.6216,334.4902,947.6216,338.4902,937.6216,334.4902,941.6216" style="stroke:#181818;stroke-width:1;"/><line style="stroke:#181818;stroke-width:1;" x1="334.4902" x2="334.4902" y1="1025.5903" y2="1049.9927"/><polygon fill="#181818" points="330.4902,1039.9927,334.4902,1049.9927,338.4902,1039.9927,334.4902,1043.9927" style="stroke:#181818;stroke-width:1;"/><line style="stroke:#181818;stroke-width:1;" x1="414.2788" x2="426.2788" y1="1013.5903" y2="1013.5903"/><polygon fill="#181818" points="422.2788,1056.9771,426.2788,1066.9771,430.2788,1056.9771,426.2788,1060.9771" style="stroke:#181818;stroke-width:1;"/><line style="stroke:#181818;stroke-width:1;" x1="426.2788" x2="426.2788" y1="1013.5903" y2="1115.9614"/><line style="stroke:#181818;stroke-width:1;" x1="426.2788" x2="346.4902" y1="1115.9614" y2="1115.9614"/><polygon fill="#181818" points="356.4902,1111.9614,346.4902,1115.9614,356.4902,1119.9614,352.4902,1115.9614" style="stroke:#181818;stroke-width:1;"/><line style="stroke:#181818;stroke-width:1;" x1="334.4902" x2="334.4902" y1="1083.9614" y2="1103.9614"/><polygon fill="#181818" points="330.4902,1093.9614,334.4902,1103.9614,338.4902,1093.9614,334.4902,1097.9614" style="stroke:#181818;stroke-width:1;"/><line style="stroke:#181818;stroke-width:1;" x1="334.4902" x2="334.4902" y1="981.5903" y2="1001.5903"/><polygon fill="#181818" points="330.4902,991.5903,334.4902,1001.5903,338.4902,991.5903,334.4902,995.5903" style="stroke:#181818;stroke-width:1;"/><line style="stroke:#181818;stroke-width:1;" x1="334.4902" x2="334.4902" y1="873.6528" y2="893.6528"/><polygon fill="#181818" points="330.4902,883.6528,334.4902,893.6528,338.4902,883.6528,334.4902,887.6528" style="stroke:#181818;stroke-width:1;"/><line style="stroke:#181818;stroke-width:1;" x1="392.8911" x2="438.2788" y1="1159.9614" y2="1159.9614"/><polygon fill="#181818" points="434.2788,1008.0083,438.2788,998.0083,442.2788,1008.0083,438.2788,1004.0083" style="stroke:#181818;stroke-width:1;"/><line style="stroke:#181818;stroke-width:1;" x1="438.2788" x2="438.2788" y1="861.6528" y2="1159.9614"/><line style="stroke:#181818;stroke-width:1;" x1="438.2788" x2="346.4902" y1="861.6528" y2="861.6528"/><polygon fill="#181818" points="356.4902,857.6528,346.4902,861.6528,356.4902,865.6528,352.4902,861.6528" style="stroke:#181818;stroke-width:1;"/><line style="stroke:#181818;stroke-width:1;" x1="334.4902" x2="334.4902" y1="1127.9614" y2="1147.9614"/><polygon fill="#181818" points="330.4902,1137.9614,334.4902,1147.9614,338.4902,1137.9614,334.4902,1141.9614" style="stroke:#181818;stroke-width:1;"/><line style="stroke:#181818;stroke-width:1;" x1="334.4902" x2="334.4902" y1="829.6528" y2="849.6528"/><polygon fill="#181818" points="330.4902,839.6528,334.4902,849.6528,338.4902,839.6528,334.4902,843.6528" style="stroke:#181818;stroke-width:1;"/><line style="stroke:#181818;stroke-width:1;" x1="334.4902" x2="334.4902" y1="1171.9614" y2="1213.3604"/><polygon fill="#181818" points="330.4902,1203.3604,334.4902,1213.3604,338.4902,1203.3604,334.4902,1207.3604" style="stroke:#181818;stroke-width:1;"/><text fill="#000000" font-family="sans-serif" font-size="11" lengthAdjust="spacing" textLength="14.9585" x="338.4902" y="1193.2661">No</text><!--SRC=[ZLBBRjim4BppA_Re779eSvEA5gdZj2vanuqD13qIr5eYH94gkKhgVdsNr0DENHIv2PpPdOUMD1c4fREgzzzxx14ECZHmfqCdITMmFmN25cuLwMTD9mPavMKhH23fIOXiRJLfQVHl7Bcvi8uGlAvg4W3NiFGe-M7djVEyuhDngj6sIcg9i8-h67Tbhz33eUQ1Cfn1JyutCm0xvqm22zbRjhXnRC5Di41RGdGWn977c9ZDczzby0Kj-cWdnWpvA_Zz_-6RIpWgWAoajipqs75G_k2XqN6dLHE0OgD7xrhu6JFdYQAFi4XLJxrykWAgqSBYApTtbJY3ki8GU99NcTCmYoOWB0htSa6pphVIp3nRwkEiDd52hnHY6MR17nZcHHiP4mLOFcnsnUgmkZjNtBgPjxRAOukME3Rv4oZNMyf7DAezyhF601_Wvbz2lE8HKnsfdcdoRvqpH_UtwsAoSnvj-XhgXvTQyq4lnhlrlRLyQ-n0Xrd_-kFMnJs1N9VE9HsAo5uVKYxc7veLhe8mREIxftwuZ6MDged3yT4OB5EKXCK6LhywnyUhBQ5_beODIbLZUTb6DZB9mRVzmpRE3w7U6ca85EFy0G00]--></g></svg>