<svg xmlns="http://www.w3.org/2000/svg" xmlns:xlink="http://www.w3.org/1999/xlink" contentStyleType="text/css" data-diagram-type="DESCRIPTION" height="364px" preserveAspectRatio="none" style="width:956px;height:364px;background:#FFFFFF;" version="1.1" viewBox="0 0 956 364" width="956px" zoomAndPan="magnify"><defs/><g><!--cluster Producers--><g class="cluster" data-entity="Producers" data-source-line="1" data-uid="ent0002" id="cluster_Producers"><path d="M502.14,152.3 L582.9427,152.3 A3.75,3.75 0 0 1 585.4427,154.8 L592.4427,174.5969 L947.14,174.5969 A2.5,2.5 0 0 1 949.64,177.0969 L949.64,247.09 A2.5,2.5 0 0 1 947.14,249.59 L502.14,249.59 A2.5,2.5 0 0 1 499.64,247.09 L499.64,154.8 A2.5,2.5 0 0 1 502.14,152.3" fill="none" style="stroke:#000000;stroke-width:1.5;"/><line style="stroke:#000000;stroke-width:1.5;" x1="499.64" x2="592.4427" y1="174.5969" y2="174.5969"/><text fill="#000000" font-family="sans-serif" font-size="14" font-weight="bold" lengthAdjust="spacing" textLength="79.8027" x="503.64" y="167.2951">Producers</text></g><!--cluster Workers--><g class="cluster" data-entity="Workers" data-source-line="7" data-uid="ent0006" id="cluster_Workers"><path d="M19.14,6 L86.1478,6 A3.75,3.75 0 0 1 88.6478,8.5 L95.6478,28.2969 L430.14,28.2969 A2.5,2.5 0 0 1 432.64,30.7969 L432.64,100.8 A2.5,2.5 0 0 1 430.14,103.3 L19.14,103.3 A2.5,2.5 0 0 1 16.64,100.8 L16.64,8.5 A2.5,2.5 0 0 1 19.14,6" fill="none" style="stroke:#000000;stroke-width:1.5;"/><line style="stroke:#000000;stroke-width:1.5;" x1="16.64" x2="95.6478" y1="28.2969" y2="28.2969"/><text fill="#000000" font-family="sans-serif" font-size="14" font-weight="bold" lengthAdjust="spacing" textLength="66.0078" x="20.64" y="20.9951">Workers</text></g><!--com.sikawofie.concurqueue.entity P1--><g class="com.sikawofie.concurqueue.entity" data-entity="P1" data-source-line="2" data-uid="ent0003" id="entity_P1"><rect fill="#F1F1F1" height="46.2969" rx="2.5" ry="2.5" style="stroke:#181818;stroke-width:0.5;" width="115.9473" x="515.67" y="187.3"/><rect fill="#F1F1F1" height="10" style="stroke:#181818;stroke-width:0.5;" width="15" x="611.6173" y="192.3"/><rect fill="#F1F1F1" height="2" style="stroke:#181818;stroke-width:0.5;" width="4" x="609.6173" y="194.3"/><rect fill="#F1F1F1" height="2" style="stroke:#181818;stroke-width:0.5;" width="4" x="609.6173" y="198.3"/><text fill="#000000" font-family="sans-serif" font-size="14" lengthAdjust="spacing" textLength="75.9473" x="530.67" y="220.2951">com.sikawofie.concurqueue.producer.Producer
    1</text></g><!--com.sikawofie.concurqueue.entity P2--><g class="com.sikawofie.concurqueue.entity" data-entity="P2" data-source-line="3" data-uid="ent0004" id="entity_P2"><rect fill="#F1F1F1" height="46.2969" rx="2.5" ry="2.5" style="stroke:#181818;stroke-width:0.5;" width="115.9473" x="666.67" y="187.3"/><rect fill="#F1F1F1" height="10" style="stroke:#181818;stroke-width:0.5;" width="15" x="762.6173" y="192.3"/><rect fill="#F1F1F1" height="2" style="stroke:#181818;stroke-width:0.5;" width="4" x="760.6173" y="194.3"/><rect fill="#F1F1F1" height="2" style="stroke:#181818;stroke-width:0.5;" width="4" x="760.6173" y="198.3"/><text fill="#000000" font-family="sans-serif" font-size="14" lengthAdjust="spacing" textLength="75.9473" x="681.67" y="220.2951">com.sikawofie.concurqueue.producer.Producer
    2</text></g><!--com.sikawofie.concurqueue.entity P3--><g class="com.sikawofie.concurqueue.entity" data-entity="P3" data-source-line="4" data-uid="ent0005" id="entity_P3"><rect fill="#F1F1F1" height="46.2969" rx="2.5" ry="2.5" style="stroke:#181818;stroke-width:0.5;" width="115.9473" x="817.67" y="187.3"/><rect fill="#F1F1F1" height="10" style="stroke:#181818;stroke-width:0.5;" width="15" x="913.6173" y="192.3"/><rect fill="#F1F1F1" height="2" style="stroke:#181818;stroke-width:0.5;" width="4" x="911.6173" y="194.3"/><rect fill="#F1F1F1" height="2" style="stroke:#181818;stroke-width:0.5;" width="4" x="911.6173" y="198.3"/><text fill="#000000" font-family="sans-serif" font-size="14" lengthAdjust="spacing" textLength="75.9473" x="832.67" y="220.2951">com.sikawofie.concurqueue.producer.Producer
    3</text></g><!--com.sikawofie.concurqueue.entity W1--><g class="com.sikawofie.concurqueue.entity" data-entity="W1" data-source-line="8" data-uid="ent0007" id="entity_W1"><rect fill="#F1F1F1" height="46.2969" rx="2.5" ry="2.5" style="stroke:#181818;stroke-width:0.5;" width="103.998" x="32.64" y="41"/><rect fill="#F1F1F1" height="10" style="stroke:#181818;stroke-width:0.5;" width="15" x="116.638" y="46"/><rect fill="#F1F1F1" height="2" style="stroke:#181818;stroke-width:0.5;" width="4" x="114.638" y="48"/><rect fill="#F1F1F1" height="2" style="stroke:#181818;stroke-width:0.5;" width="4" x="114.638" y="52"/><text fill="#000000" font-family="sans-serif" font-size="14" lengthAdjust="spacing" textLength="63.998" x="47.64" y="73.9951">com.sikawofie.concurqueue.consumer.Worker
    1</text></g><!--com.sikawofie.concurqueue.entity W2--><g class="com.sikawofie.concurqueue.entity" data-entity="W2" data-source-line="9" data-uid="ent0008" id="entity_W2"><rect fill="#F1F1F1" height="46.2969" rx="2.5" ry="2.5" style="stroke:#181818;stroke-width:0.5;" width="103.998" x="171.64" y="41"/><rect fill="#F1F1F1" height="10" style="stroke:#181818;stroke-width:0.5;" width="15" x="255.638" y="46"/><rect fill="#F1F1F1" height="2" style="stroke:#181818;stroke-width:0.5;" width="4" x="253.638" y="48"/><rect fill="#F1F1F1" height="2" style="stroke:#181818;stroke-width:0.5;" width="4" x="253.638" y="52"/><text fill="#000000" font-family="sans-serif" font-size="14" lengthAdjust="spacing" textLength="63.998" x="186.64" y="73.9951">com.sikawofie.concurqueue.consumer.Worker
    2</text></g><!--com.sikawofie.concurqueue.entity Wn--><g class="com.sikawofie.concurqueue.entity" data-entity="Wn" data-source-line="10" data-uid="ent0009" id="entity_Wn"><rect fill="#F1F1F1" height="46.2969" rx="2.5" ry="2.5" style="stroke:#181818;stroke-width:0.5;" width="105.5635" x="310.86" y="41"/><rect fill="#F1F1F1" height="10" style="stroke:#181818;stroke-width:0.5;" width="15" x="396.4235" y="46"/><rect fill="#F1F1F1" height="2" style="stroke:#181818;stroke-width:0.5;" width="4" x="394.4235" y="48"/><rect fill="#F1F1F1" height="2" style="stroke:#181818;stroke-width:0.5;" width="4" x="394.4235" y="52"/><text fill="#000000" font-family="sans-serif" font-size="14" lengthAdjust="spacing" textLength="65.5635" x="325.86" y="73.9951">com.sikawofie.concurqueue.consumer.Worker
    N</text></g><!--com.sikawofie.concurqueue.entity Q--><g class="com.sikawofie.concurqueue.entity" data-entity="Q" data-source-line="13" data-uid="ent0010" id="entity_Q"><rect fill="#F1F1F1" height="46.2969" rx="2.5" ry="2.5" style="stroke:#181818;stroke-width:0.5;" width="195.5791" x="321.85" y="312.59"/><rect fill="#F1F1F1" height="10" style="stroke:#181818;stroke-width:0.5;" width="15" x="497.4291" y="317.59"/><rect fill="#F1F1F1" height="2" style="stroke:#181818;stroke-width:0.5;" width="4" x="495.4291" y="319.59"/><rect fill="#F1F1F1" height="2" style="stroke:#181818;stroke-width:0.5;" width="4" x="495.4291" y="323.59"/><text fill="#000000" font-family="sans-serif" font-size="14" lengthAdjust="spacing" textLength="155.5791" x="336.85" y="345.5851">PriorityBlockingQueue</text></g><!--com.sikawofie.concurqueue.entity M--><g class="com.sikawofie.concurqueue.entity" data-entity="M" data-source-line="14" data-uid="ent0011" id="entity_M"><rect fill="#F1F1F1" height="46.2969" rx="2.5" ry="2.5" style="stroke:#181818;stroke-width:0.5;" width="93.2178" x="125.03" y="187.3"/><rect fill="#F1F1F1" height="10" style="stroke:#181818;stroke-width:0.5;" width="15" x="198.2478" y="192.3"/><rect fill="#F1F1F1" height="2" style="stroke:#181818;stroke-width:0.5;" width="4" x="196.2478" y="194.3"/><rect fill="#F1F1F1" height="2" style="stroke:#181818;stroke-width:0.5;" width="4" x="196.2478" y="198.3"/><text fill="#000000" font-family="sans-serif" font-size="14" lengthAdjust="spacing" textLength="53.2178" x="140.03" y="220.2951">com.sikawofie.concurqueue.monitor.Monitor</text></g><!--link P1 to Q--><g class="link" data-entity-1="P1" data-entity-2="Q" data-source-line="16" data-uid="lnk12" id="link_P1_Q"><path d="M545.39,234.06 C517.61,256.31 480.1132,286.3194 452.3932,308.5194" fill="none" id="P1-to-Q" style="stroke:#181818;stroke-width:1;"/><polygon fill="#181818" points="447.71,312.27,457.2353,309.7662,451.6127,309.1445,452.2344,303.5219,447.71,312.27" style="stroke:#181818;stroke-width:1;"/><text fill="#000000" font-family="sans-serif" font-size="13" lengthAdjust="spacing" textLength="44.6367" x="506.64" y="278.6569">submit</text></g><!--link P2 to Q--><g class="link" data-entity-1="P2" data-entity-2="Q" data-source-line="17" data-uid="lnk13" id="link_P2_Q"><path d="M691.1,234.01 C678.18,242.11 663.06,250.89 648.64,257.59 C601.19,279.66 551.3397,296.7918 506.8197,310.3518" fill="none" id="P2-to-Q" style="stroke:#181818;stroke-width:1;"/><polygon fill="#181818" points="501.08,312.1,510.855,313.3041,505.8631,310.6432,508.524,305.6513,501.08,312.1" style="stroke:#181818;stroke-width:1;"/><text fill="#000000" font-family="sans-serif" font-size="13" lengthAdjust="spacing" textLength="44.6367" x="631.64" y="278.6569">submit</text></g><!--link P3 to Q--><g class="link" data-entity-1="P3" data-entity-2="Q" data-source-line="18" data-uid="lnk14" id="link_P3_Q"><path d="M843.96,233.92 C830.77,242.4 814.98,251.47 799.64,257.59 C707.74,294.29 602.0282,313.4934 523.6082,323.8634" fill="none" id="P3-to-Q" style="stroke:#181818;stroke-width:1;"/><polygon fill="#181818" points="517.66,324.65,527.1067,327.4356,522.6168,323.9945,526.0579,319.5047,517.66,324.65" style="stroke:#181818;stroke-width:1;"/><text fill="#000000" font-family="sans-serif" font-size="13" lengthAdjust="spacing" textLength="44.6367" x="770.64" y="278.6569">submit</text></g><!--link Q to W1--><g class="link" data-entity-1="Q" data-entity-2="W1" data-source-line="20" data-uid="lnk15" id="link_Q_W1"><path d="M321.65,328.18 C223.02,319.29 80.72,299.45 46.64,257.59 C6,207.68 42.9601,131.695 66.7201,92.665" fill="none" id="Q-to-W1" style="stroke:#181818;stroke-width:1;"/><polygon fill="#181818" points="69.84,87.54,61.7434,93.1476,67.2401,91.8109,68.5768,97.3075,69.84,87.54" style="stroke:#181818;stroke-width:1;"/><text fill="#000000" font-family="sans-serif" font-size="13" lengthAdjust="spacing" textLength="59.0142" x="47.64" y="215.0069">consume</text></g><!--link Q to W2--><g class="link" data-entity-1="Q" data-entity-2="W2" data-source-line="21" data-uid="lnk16" id="link_Q_W2"><path d="M376.78,312.23 C354.8,298.85 329.05,280.1 311.64,257.59 C271.37,205.52 288.44,177.99 258.64,119.3 C253.17,108.52 249.4203,102.1842 243.0603,92.6942" fill="none" id="Q-to-W2" style="stroke:#181818;stroke-width:1;"/><polygon fill="#181818" points="239.72,87.71,241.4077,97.4132,242.5036,91.8635,248.0533,92.9594,239.72,87.71" style="stroke:#181818;stroke-width:1;"/><text fill="#000000" font-family="sans-serif" font-size="13" lengthAdjust="spacing" textLength="59.0142" x="312.64" y="215.0069">consume</text></g><!--link Q to Wn--><g class="link" data-entity-1="Q" data-entity-2="Wn" data-source-line="22" data-uid="lnk17" id="link_Q_Wn"><path d="M414.94,312.09 C404.37,261.23 380.0801,144.2946 369.5401,93.5446" fill="none" id="Q-to-Wn" style="stroke:#181818;stroke-width:1;"/><polygon fill="#181818" points="368.32,87.67,366.2337,97.2953,369.3367,92.5655,374.0665,95.6686,368.32,87.67" style="stroke:#181818;stroke-width:1;"/><text fill="#000000" font-family="sans-serif" font-size="13" lengthAdjust="spacing" textLength="59.0142" x="403.64" y="215.0069">consume</text></g><!--link W1 to M--><g class="link" data-entity-1="W1" data-entity-2="M" data-source-line="24" data-uid="lnk18" id="link_W1_M"><path d="M98.23,87.69 C114.58,114.8 138.7424,154.8814 155.0424,181.9214" fill="none" id="W1-to-M" style="stroke:#181818;stroke-width:1;"/><polygon fill="#181818" points="158.14,187.06,156.9193,177.2871,155.5587,182.7779,150.0679,181.4172,158.14,187.06" style="stroke:#181818;stroke-width:1;"/><text fill="#000000" font-family="sans-serif" font-size="13" lengthAdjust="spacing" textLength="45.8047" x="125.64" y="132.3669">update</text></g><!--link W2 to M--><g class="link" data-entity-1="W2" data-entity-2="M" data-source-line="25" data-uid="lnk19" id="link_W2_M"><path d="M215.52,87.69 C205.75,114.8 191.4834,154.375 181.7434,181.415" fill="none" id="W2-to-M" style="stroke:#181818;stroke-width:1;"/><polygon fill="#181818" points="179.71,187.06,186.5233,179.9481,181.4045,182.3559,178.9967,177.237,179.71,187.06" style="stroke:#181818;stroke-width:1;"/><text fill="#000000" font-family="sans-serif" font-size="13" lengthAdjust="spacing" textLength="45.8047" x="204.64" y="132.3669">update</text></g><!--link Wn to M--><g class="link" data-entity-1="Wn" data-entity-2="M" data-source-line="26" data-uid="lnk20" id="link_Wn_M"><path d="M331.25,87.63 C310.62,101.82 283.24,120.4 258.64,136.3 C252.94,139.98 251.09,140.26 245.64,144.3 C227.89,157.43 213.6445,169.7957 199.5045,182.8757" fill="none" id="Wn-to-M" style="stroke:#181818;stroke-width:1;"/><polygon fill="#181818" points="195.1,186.95,204.423,183.7748,198.7704,183.5547,198.9906,177.9022,195.1,186.95" style="stroke:#181818;stroke-width:1;"/><text fill="#000000" font-family="sans-serif" font-size="13" lengthAdjust="spacing" textLength="45.8047" x="282.64" y="132.3669">update</text></g><!--link M to Q--><g class="link" data-entity-1="M" data-entity-2="Q" data-source-line="28" data-uid="lnk21" id="link_M_Q"><path d="M178.53,233.94 C184.53,249.82 194.8,270.38 210.64,282.59 C242.25,306.97 277.9406,318.9961 315.6906,325.9961" fill="none" id="M-to-Q" style="stroke:#181818;stroke-width:1;"/><polygon fill="#181818" points="321.59,327.09,313.4701,321.5161,316.6738,326.1784,312.0116,329.3821,321.59,327.09" style="stroke:#181818;stroke-width:1;"/><text fill="#000000" font-family="sans-serif" font-size="13" lengthAdjust="spacing" textLength="50.8638" x="211.64" y="278.6569">com.sikawofie.concurqueue.monitor</text></g><!--SRC=[PS-n3eCW483X_PxYuku0RXqwTBU1YS5qe4WCiO916PgcxrugjL5ako_aFnYbwcMdiM3UjK5fFnNu0eodMGN93UM4Z6HC4zECgyGLl076jIwSxxVjDF_AWkmmTGNTuJMX_LRZBkEycP-NXrEziHqFEkZb0eUcTjRCpYzZ3S08bkKPEPvm2lV1pC3eGQfSW2yYI2Jbx1G6lH8zajqGYBImZXR6LiuQ13s8pGNg_nE6z84F]--></g></svg>