<svg xmlns="http://www.w3.org/2000/svg" xmlns:xlink="http://www.w3.org/1999/xlink" contentStyleType="text/css" data-diagram-type="ACTIVITY" height="296px" preserveAspectRatio="none" style="width:471px;height:296px;background:#FFFFFF;" version="1.1" viewBox="0 0 471 296" width="471px" zoomAndPan="magnify"><defs/><g><ellipse cx="235.623" cy="20" fill="#222222" rx="10" ry="10" style="stroke:#222222;stroke-width:1;"/><rect fill="#F1F1F1" height="33.9688" rx="12.5" ry="12.5" style="stroke:#181818;stroke-width:0.5;" width="118.7832" x="176.2314" y="50"/><text fill="#000000" font-family="sans-serif" font-size="12" lengthAdjust="spacing" textLength="98.7832" x="186.2314" y="71.1387">Initialize System</text><rect fill="#555555" height="6" rx="2.5" ry="2.5" style="stroke:#555555;stroke-width:1;" width="449.2461" x="11" y="103.9688"/><rect fill="#F1F1F1" height="33.9688" rx="12.5" ry="12.5" style="stroke:#181818;stroke-width:0.5;" width="113.0293" x="36.626" y="129.9688"/><text fill="#000000" font-family="sans-serif" font-size="12" lengthAdjust="spacing" textLength="93.0293" x="46.626" y="151.1074">Start Producers</text><rect fill="#F1F1F1" height="33.9688" rx="12.5" ry="12.5" style="stroke:#181818;stroke-width:0.5;" width="140.2813" x="23" y="183.9375"/><text fill="#000000" font-family="sans-serif" font-size="12" lengthAdjust="spacing" textLength="120.2813" x="33" y="205.0762">-&gt; :Generate Tasks;</text><rect fill="#F1F1F1" height="33.9688" rx="12.5" ry="12.5" style="stroke:#181818;stroke-width:0.5;" width="102.7871" x="187.0039" y="129.9688"/><text fill="#000000" font-family="sans-serif" font-size="12" lengthAdjust="spacing" textLength="82.7871" x="197.0039" y="151.1074">Start Workers</text><rect fill="#F1F1F1" height="33.9688" rx="12.5" ry="12.5" style="stroke:#181818;stroke-width:0.5;" width="130.2324" x="173.2813" y="183.9375"/><text fill="#000000" font-family="sans-serif" font-size="12" lengthAdjust="spacing" textLength="110.2324" x="183.2813" y="205.0762">-&gt; :Process Tasks;</text><rect fill="#F1F1F1" height="33.9688" rx="12.5" ry="12.5" style="stroke:#181818;stroke-width:0.5;" width="98.7441" x="331.5078" y="129.9688"/><text fill="#000000" font-family="sans-serif" font-size="12" lengthAdjust="spacing" textLength="78.7441" x="341.5078" y="151.1074">Start Monitor</text><rect fill="#F1F1F1" height="33.9688" rx="12.5" ry="12.5" style="stroke:#181818;stroke-width:0.5;" width="134.7324" x="313.5137" y="183.9375"/><text fill="#000000" font-family="sans-serif" font-size="12" lengthAdjust="spacing" textLength="114.7324" x="323.5137" y="205.0762">-&gt; :Collect Metrics;</text><rect fill="#555555" height="6" rx="2.5" ry="2.5" style="stroke:#555555;stroke-width:1;" width="449.2461" x="11" y="237.9063"/><ellipse cx="235.623" cy="274.9063" fill="none" rx="11" ry="11" style="stroke:#222222;stroke-width:1;"/><ellipse cx="235.623" cy="274.9063" fill="#222222" rx="6" ry="6" style="stroke:#222222;stroke-width:1;"/><line style="stroke:#181818;stroke-width:1;" x1="235.623" x2="235.623" y1="30" y2="50"/><polygon fill="#181818" points="231.623,40,235.623,50,239.623,40,235.623,44" style="stroke:#181818;stroke-width:1;"/><line style="stroke:#181818;stroke-width:1;" x1="93.1406" x2="93.1406" y1="163.9375" y2="183.9375"/><polygon fill="#181818" points="89.1406,173.9375,93.1406,183.9375,97.1406,173.9375,93.1406,177.9375" style="stroke:#181818;stroke-width:1;"/><line style="stroke:#181818;stroke-width:1;" x1="238.3975" x2="238.3975" y1="163.9375" y2="183.9375"/><polygon fill="#181818" points="234.3975,173.9375,238.3975,183.9375,242.3975,173.9375,238.3975,177.9375" style="stroke:#181818;stroke-width:1;"/><line style="stroke:#181818;stroke-width:1;" x1="380.8799" x2="380.8799" y1="163.9375" y2="183.9375"/><polygon fill="#181818" points="376.8799,173.9375,380.8799,183.9375,384.8799,173.9375,380.8799,177.9375" style="stroke:#181818;stroke-width:1;"/><line style="stroke:#181818;stroke-width:1;" x1="93.1406" x2="93.1406" y1="109.9688" y2="129.9688"/><polygon fill="#181818" points="89.1406,119.9688,93.1406,129.9688,97.1406,119.9688,93.1406,123.9688" style="stroke:#181818;stroke-width:1;"/><line style="stroke:#181818;stroke-width:1;" x1="238.3975" x2="238.3975" y1="109.9688" y2="129.9688"/><polygon fill="#181818" points="234.3975,119.9688,238.3975,129.9688,242.3975,119.9688,238.3975,123.9688" style="stroke:#181818;stroke-width:1;"/><line style="stroke:#181818;stroke-width:1;" x1="380.8799" x2="380.8799" y1="109.9688" y2="129.9688"/><polygon fill="#181818" points="376.8799,119.9688,380.8799,129.9688,384.8799,119.9688,380.8799,123.9688" style="stroke:#181818;stroke-width:1;"/><line style="stroke:#181818;stroke-width:1;" x1="93.1406" x2="93.1406" y1="217.9063" y2="237.9063"/><polygon fill="#181818" points="89.1406,227.9063,93.1406,237.9063,97.1406,227.9063,93.1406,231.9063" style="stroke:#181818;stroke-width:1;"/><line style="stroke:#181818;stroke-width:1;" x1="238.3975" x2="238.3975" y1="217.9063" y2="237.9063"/><polygon fill="#181818" points="234.3975,227.9063,238.3975,237.9063,242.3975,227.9063,238.3975,231.9063" style="stroke:#181818;stroke-width:1;"/><line style="stroke:#181818;stroke-width:1;" x1="380.8799" x2="380.8799" y1="217.9063" y2="237.9063"/><polygon fill="#181818" points="376.8799,227.9063,380.8799,237.9063,384.8799,227.9063,380.8799,231.9063" style="stroke:#181818;stroke-width:1;"/><line style="stroke:#181818;stroke-width:1;" x1="235.623" x2="235.623" y1="83.9688" y2="103.9688"/><polygon fill="#181818" points="231.623,93.9688,235.623,103.9688,239.623,93.9688,235.623,97.9688" style="stroke:#181818;stroke-width:1;"/><line style="stroke:#181818;stroke-width:1;" x1="235.623" x2="235.623" y1="243.9063" y2="263.9063"/><polygon fill="#181818" points="231.623,253.9063,235.623,263.9063,239.623,253.9063,235.623,257.9063" style="stroke:#181818;stroke-width:1;"/><!--SRC=[VOun2W9134NxEKKki1UO1HiBiH245Qp3R5R2ZXD9Oh6UtgYmMja-tljySrHFAUyREsFb1y6mcDErJvFed03oy5BWg3BU2wdrmRfk0tb7ZHITu8GssyS7l22tRtKEzjl4IY6pVyb1ueheccobLYh1oPLBHDH6U7zBvd9x0W00]--></g></svg>