<svg xmlns="http://www.w3.org/2000/svg" xmlns:xlink="http://www.w3.org/1999/xlink" contentStyleType="text/css" data-diagram-type="SEQUENCE" height="635px" preserveAspectRatio="none" style="width:702px;height:635px;background:#FFFFFF;" version="1.1" viewBox="0 0 702 635" width="702px" zoomAndPan="magnify"><defs/><g><rect fill="none" height="46.2656" style="stroke:#000000;stroke-width:1.5;" width="294.6592" x="10" y="96.4297"/><rect fill="none" height="208.7344" style="stroke:#000000;stroke-width:1.5;" width="431.0161" x="214.667" y="199.8281"/><rect fill="none" height="119.3359" style="stroke:#000000;stroke-width:1.5;" width="411.0161" x="224.667" y="282.2266"/><rect fill="none" height="117.5313" style="stroke:#000000;stroke-width:1.5;" width="461.1763" x="224.667" y="465.6953"/><g><title>com.sikawofie.concurqueue.producer.Producer</title><rect fill="#000000" fill-opacity="0.00000" height="563.9297" width="8" x="54.2949" y="36.2969"/><line style="stroke:#181818;stroke-width:0.5;stroke-dasharray:5.0,5.0;" x1="58" x2="58" y1="36.2969" y2="600.2266"/></g><g><title>Queue</title><rect fill="#000000" fill-opacity="0.00000" height="563.9297" width="8" x="260.6631" y="36.2969"/><line style="stroke:#181818;stroke-width:0.5;stroke-dasharray:5.0,5.0;" x1="263.667" x2="263.667" y1="36.2969" y2="600.2266"/></g><g><title>com.sikawofie.concurqueue.consumer.Worker</title><rect fill="#000000" fill-opacity="0.00000" height="563.9297" width="8" x="376.7612" y="36.2969"/><line style="stroke:#181818;stroke-width:0.5;stroke-dasharray:5.0,5.0;" x1="380.4409" x2="380.4409" y1="36.2969" y2="600.2266"/></g><g><title>com.sikawofie.concurqueue.monitor.Monitor</title><rect fill="#000000" fill-opacity="0.00000" height="563.9297" width="8" x="588.0742" y="36.2969"/><line style="stroke:#181818;stroke-width:0.5;stroke-dasharray:5.0,5.0;" x1="591.4653" x2="591.4653" y1="36.2969" y2="600.2266"/></g><g class="participant participant-head" data-participant="P"><rect fill="#E2E2F0" height="30.2969" rx="2.5" ry="2.5" style="stroke:#181818;stroke-width:0.5;" width="76.5898" x="20" y="5"/><text fill="#000000" font-family="sans-serif" font-size="14" lengthAdjust="spacing" textLength="62.5898" x="27" y="24.9951">com.sikawofie.concurqueue.producer.Producer</text></g><g class="participant participant-tail" data-participant="P"><rect fill="#E2E2F0" height="30.2969" rx="2.5" ry="2.5" style="stroke:#181818;stroke-width:0.5;" width="76.5898" x="20" y="599.2266"/><text fill="#000000" font-family="sans-serif" font-size="14" lengthAdjust="spacing" textLength="62.5898" x="27" y="619.2217">com.sikawofie.concurqueue.producer.Producer</text></g><g class="participant participant-head" data-participant="Q"><rect fill="#E2E2F0" height="30.2969" rx="2.5" ry="2.5" style="stroke:#181818;stroke-width:0.5;" width="59.9922" x="234.667" y="5"/><text fill="#000000" font-family="sans-serif" font-size="14" lengthAdjust="spacing" textLength="45.9922" x="241.667" y="24.9951">Queue</text></g><g class="participant participant-tail" data-participant="Q"><rect fill="#E2E2F0" height="30.2969" rx="2.5" ry="2.5" style="stroke:#181818;stroke-width:0.5;" width="59.9922" x="234.667" y="599.2266"/><text fill="#000000" font-family="sans-serif" font-size="14" lengthAdjust="spacing" textLength="45.9922" x="241.667" y="619.2217">Queue</text></g><g class="participant participant-head" data-participant="W"><rect fill="#E2E2F0" height="30.2969" rx="2.5" ry="2.5" style="stroke:#181818;stroke-width:0.5;" width="64.6406" x="348.4409" y="5"/><text fill="#000000" font-family="sans-serif" font-size="14" lengthAdjust="spacing" textLength="50.6406" x="355.4409" y="24.9951">com.sikawofie.concurqueue.consumer.Worker</text></g><g class="participant participant-tail" data-participant="W"><rect fill="#E2E2F0" height="30.2969" rx="2.5" ry="2.5" style="stroke:#181818;stroke-width:0.5;" width="64.6406" x="348.4409" y="599.2266"/><text fill="#000000" font-family="sans-serif" font-size="14" lengthAdjust="spacing" textLength="50.6406" x="355.4409" y="619.2217">com.sikawofie.concurqueue.consumer.Worker</text></g><g class="participant participant-head" data-participant="M"><rect fill="#E2E2F0" height="30.2969" rx="2.5" ry="2.5" style="stroke:#181818;stroke-width:0.5;" width="67.2178" x="558.4653" y="5"/><text fill="#000000" font-family="sans-serif" font-size="14" lengthAdjust="spacing" textLength="53.2178" x="565.4653" y="24.9951">com.sikawofie.concurqueue.monitor.Monitor</text></g><g class="participant participant-tail" data-participant="M"><rect fill="#E2E2F0" height="30.2969" rx="2.5" ry="2.5" style="stroke:#181818;stroke-width:0.5;" width="67.2178" x="558.4653" y="599.2266"/><text fill="#000000" font-family="sans-serif" font-size="14" lengthAdjust="spacing" textLength="53.2178" x="565.4653" y="619.2217">com.sikawofie.concurqueue.monitor.Monitor</text></g><rect fill="#EEEEEE" height="3" style="stroke:#EEEEEE;stroke-width:1;" width="695.8433" x="0" y="66.8633"/><line style="stroke:#000000;stroke-width:1;" x1="0" x2="695.8433" y1="66.8633" y2="66.8633"/><line style="stroke:#000000;stroke-width:1;" x1="0" x2="695.8433" y1="69.8633" y2="69.8633"/><rect fill="#EEEEEE" height="23.1328" style="stroke:#000000;stroke-width:2;" width="274.311" x="210.7661" y="56.2969"/><text fill="#000000" font-family="sans-serif" font-size="13" font-weight="bold" lengthAdjust="spacing" textLength="255.7852" x="216.7661" y="72.3638">com.sikawofie.concurqueue.entity.Task
    Submission Loop (Every 1-3s)</text><path d="M10,96.4297 L86.624,96.4297 L86.624,103.5625 L76.624,113.5625 L10,113.5625 L10,96.4297" fill="#EEEEEE" style="stroke:#000000;stroke-width:1.5;"/><rect fill="none" height="46.2656" style="stroke:#000000;stroke-width:1.5;" width="294.6592" x="10" y="96.4297"/><text fill="#000000" font-family="sans-serif" font-size="13" font-weight="bold" lengthAdjust="spacing" textLength="31.624" x="25" y="109.4966">loop</text><text fill="#000000" font-family="sans-serif" font-size="11" font-weight="bold" lengthAdjust="spacing" textLength="75.0449" x="101.624" y="108.6401">[Every 1-3s]</text><g class="message" data-participant-1="P" data-participant-2="Q"><line style="stroke:#181818;stroke-width:1;" x1="262.6631" x2="252.6631" y1="134.6953" y2="130.6953"/><line style="stroke:#181818;stroke-width:1;" x1="262.6631" x2="252.6631" y1="134.6953" y2="138.6953"/><line style="stroke:#181818;stroke-width:1;" x1="58.2949" x2="263.6631" y1="134.6953" y2="134.6953"/><text fill="#000000" font-family="sans-serif" font-size="13" lengthAdjust="spacing" textLength="182.3682" x="65.2949" y="129.6294">Submit
    com.sikawofie.concurqueue.entity.Task (UUID, Priority)</text></g><rect fill="#EEEEEE" height="3" style="stroke:#EEEEEE;stroke-width:1;" width="695.8433" x="0" y="170.2617"/><line style="stroke:#000000;stroke-width:1;" x1="0" x2="695.8433" y1="170.2617" y2="170.2617"/><line style="stroke:#000000;stroke-width:1;" x1="0" x2="695.8433" y1="173.2617" y2="173.2617"/><rect fill="#EEEEEE" height="23.1328" style="stroke:#000000;stroke-width:2;" width="176.938" x="259.4526" y="159.6953"/><text fill="#000000" font-family="sans-serif" font-size="13" font-weight="bold" lengthAdjust="spacing" textLength="158.4121" x="265.4526" y="175.7622">com.sikawofie.concurqueue.entity.Task
    Processing Loop</text><path d="M214.667,199.8281 L291.291,199.8281 L291.291,206.9609 L281.291,216.9609 L214.667,216.9609 L214.667,199.8281" fill="#EEEEEE" style="stroke:#000000;stroke-width:1.5;"/><rect fill="none" height="208.7344" style="stroke:#000000;stroke-width:1.5;" width="431.0161" x="214.667" y="199.8281"/><text fill="#000000" font-family="sans-serif" font-size="13" font-weight="bold" lengthAdjust="spacing" textLength="31.624" x="229.667" y="212.895">loop</text><text fill="#000000" font-family="sans-serif" font-size="11" font-weight="bold" lengthAdjust="spacing" textLength="80.1421" x="306.291" y="212.0386">[Continuous]</text><g class="message" data-participant-1="W" data-participant-2="Q"><line style="stroke:#181818;stroke-width:1;" x1="265.6631" x2="275.6631" y1="238.0938" y2="234.0938"/><line style="stroke:#181818;stroke-width:1;" x1="265.6631" x2="275.6631" y1="238.0938" y2="242.0938"/><line style="stroke:#181818;stroke-width:1;" x1="264.6631" x2="379.7612" y1="238.0938" y2="238.0938"/><text fill="#000000" font-family="sans-serif" font-size="13" lengthAdjust="spacing" textLength="65.7744" x="281.6631" y="233.0278">Take
    com.sikawofie.concurqueue.entity.Task</text></g><g class="message" data-participant-1="W" data-participant-2="M"><line style="stroke:#181818;stroke-width:1;" x1="590.0742" x2="580.0742" y1="267.2266" y2="263.2266"/><line style="stroke:#181818;stroke-width:1;" x1="590.0742" x2="580.0742" y1="267.2266" y2="271.2266"/><line style="stroke:#181818;stroke-width:1;" x1="380.7612" x2="591.0742" y1="267.2266" y2="267.2266"/><text fill="#000000" font-family="sans-serif" font-size="13" lengthAdjust="spacing" textLength="187.313" x="387.7612" y="262.1606">Update Status(PROCESSING)</text></g><path d="M224.667,282.2266 L289.1099,282.2266 L289.1099,289.3594 L279.1099,299.3594 L224.667,299.3594 L224.667,282.2266" fill="#EEEEEE" style="stroke:#000000;stroke-width:1.5;"/><rect fill="none" height="119.3359" style="stroke:#000000;stroke-width:1.5;" width="411.0161" x="224.667" y="282.2266"/><text fill="#000000" font-family="sans-serif" font-size="13" font-weight="bold" lengthAdjust="spacing" textLength="19.4429" x="239.667" y="295.2935">alt</text><text fill="#000000" font-family="sans-serif" font-size="11" font-weight="bold" lengthAdjust="spacing" textLength="59.4043" x="304.1099" y="294.437">[Success]</text><g class="message" data-participant-1="W" data-participant-2="M"><line style="stroke:#181818;stroke-width:1;" x1="590.0742" x2="580.0742" y1="320.4922" y2="316.4922"/><line style="stroke:#181818;stroke-width:1;" x1="590.0742" x2="580.0742" y1="320.4922" y2="324.4922"/><line style="stroke:#181818;stroke-width:1;" x1="380.7612" x2="591.0742" y1="320.4922" y2="320.4922"/><text fill="#000000" font-family="sans-serif" font-size="13" lengthAdjust="spacing" textLength="182.7681" x="387.7612" y="315.4263">Update Status(COMPLETED)</text></g><line style="stroke:#000000;stroke-width:1;stroke-dasharray:2.0,2.0;" x1="224.667" x2="635.6831" y1="329.4922" y2="329.4922"/><text fill="#000000" font-family="sans-serif" font-size="11" font-weight="bold" lengthAdjust="spacing" textLength="53.249" x="229.667" y="339.7026">[Failure]</text><g class="message" data-participant-1="W" data-participant-2="M"><line style="stroke:#181818;stroke-width:1;" x1="590.0742" x2="580.0742" y1="364.4297" y2="360.4297"/><line style="stroke:#181818;stroke-width:1;" x1="590.0742" x2="580.0742" y1="364.4297" y2="368.4297"/><line style="stroke:#181818;stroke-width:1;" x1="380.7612" x2="591.0742" y1="364.4297" y2="364.4297"/><text fill="#000000" font-family="sans-serif" font-size="13" lengthAdjust="spacing" textLength="168.5747" x="387.7612" y="359.3638">Update Status(RETRYING)</text></g><g class="message" data-participant-1="W" data-participant-2="Q"><line style="stroke:#181818;stroke-width:1;" x1="265.6631" x2="275.6631" y1="393.5625" y2="389.5625"/><line style="stroke:#181818;stroke-width:1;" x1="265.6631" x2="275.6631" y1="393.5625" y2="397.5625"/><line style="stroke:#181818;stroke-width:1;" x1="264.6631" x2="379.7612" y1="393.5625" y2="393.5625"/><text fill="#000000" font-family="sans-serif" font-size="13" lengthAdjust="spacing" textLength="92.0981" x="281.6631" y="388.4966">Requeue
    com.sikawofie.concurqueue.entity.Task</text></g><rect fill="#EEEEEE" height="3" style="stroke:#EEEEEE;stroke-width:1;" width="695.8433" x="0" y="436.1289"/><line style="stroke:#000000;stroke-width:1;" x1="0" x2="695.8433" y1="436.1289" y2="436.1289"/><line style="stroke:#000000;stroke-width:1;" x1="0" x2="695.8433" y1="439.1289" y2="439.1289"/><rect fill="#EEEEEE" height="23.1328" style="stroke:#000000;stroke-width:2;" width="217.4297" x="239.2068" y="425.5625"/><text fill="#000000" font-family="sans-serif" font-size="13" font-weight="bold" lengthAdjust="spacing" textLength="198.9038" x="245.2068" y="441.6294">Monitoring Loop (Every 5s)</text><path d="M224.667,465.6953 L301.291,465.6953 L301.291,472.8281 L291.291,482.8281 L224.667,482.8281 L224.667,465.6953" fill="#EEEEEE" style="stroke:#000000;stroke-width:1.5;"/><rect fill="none" height="117.5313" style="stroke:#000000;stroke-width:1.5;" width="461.1763" x="224.667" y="465.6953"/><text fill="#000000" font-family="sans-serif" font-size="13" font-weight="bold" lengthAdjust="spacing" textLength="31.624" x="239.667" y="478.7622">loop</text><text fill="#000000" font-family="sans-serif" font-size="11" font-weight="bold" lengthAdjust="spacing" textLength="62.8257" x="316.291" y="477.9058">[Every 5s]</text><g class="message" data-participant-1="M" data-participant-2="Q"><line style="stroke:#181818;stroke-width:1;" x1="265.6631" x2="275.6631" y1="503.9609" y2="499.9609"/><line style="stroke:#181818;stroke-width:1;" x1="265.6631" x2="275.6631" y1="503.9609" y2="507.9609"/><line style="stroke:#181818;stroke-width:1;" x1="264.6631" x2="591.0742" y1="503.9609" y2="503.9609"/><text fill="#000000" font-family="sans-serif" font-size="13" lengthAdjust="spacing" textLength="100.8262" x="281.6631" y="498.895">Get Queue Size</text></g><g class="message" data-participant-1="M" data-participant-2="W"><line style="stroke:#181818;stroke-width:1;" x1="381.7612" x2="391.7612" y1="533.0938" y2="529.0938"/><line style="stroke:#181818;stroke-width:1;" x1="381.7612" x2="391.7612" y1="533.0938" y2="537.0938"/><line style="stroke:#181818;stroke-width:1;" x1="380.7612" x2="591.0742" y1="533.0938" y2="533.0938"/><text fill="#000000" font-family="sans-serif" font-size="13" lengthAdjust="spacing" textLength="111.6426" x="397.7612" y="528.0278">Get
    com.sikawofie.concurqueue.consumer.Worker Stats</text></g><g class="message" data-participant-1="M" data-participant-2="M"><line style="stroke:#181818;stroke-width:1;" x1="592.0742" x2="634.0742" y1="562.2266" y2="562.2266"/><line style="stroke:#181818;stroke-width:1;" x1="634.0742" x2="634.0742" y1="562.2266" y2="575.2266"/><line style="stroke:#181818;stroke-width:1;" x1="592.0742" x2="634.0742" y1="575.2266" y2="575.2266"/><line style="stroke:#181818;stroke-width:1;" x1="593.0742" x2="603.0742" y1="575.2266" y2="571.2266"/><line style="stroke:#181818;stroke-width:1;" x1="593.0742" x2="603.0742" y1="575.2266" y2="579.2266"/><text fill="#000000" font-family="sans-serif" font-size="13" lengthAdjust="spacing" textLength="74.769" x="599.0742" y="557.1606">Log Metrics</text></g><!--SRC=[XL7BQeGm5Dtx5NUfq5cKCfk2it7iCA0TdqYNgLw6e4ri7eNfrzSOTPH2crtEpNdat9u8HMlQ4wOW4RpHDGeW4XAdNqrIZHeDd6xWYelMFgysUCmPLNmSn8xZ-r0GsKAktp-eb9GpY3ZlmGs_KDpWSVSaFV1zfpFW7NDWE0di3WT8uTcobLLoo_9yV1ZoKYwekdaEikRkCtoZni67NQtFB1rmfYZJN5lfQf4kI8iZTON70rxs3L48kI9AIpV9Ba6Ov-VNapU-8vqQGjN6Qhp_nGqkSHA5HNYqLEmamWkXdHRuBpSBY-njSTqcp_1ptCmItXGnbp5jOUbXwdl_g-sz_K2yo9vmNdbElt4rhARXj7YJSCqruID-XHYLeBKqINu0]--></g></svg>